# xmcd
#
# Track frame offsets:
#	150
#	14527
#	30567
#	44842
#	58300
#	69515
#	83137
#	101657
#	117180
#	131907
#	147677
#	163287
#	181487
#	202342
#	204115
#	205615
#	208317
#	210850
#	213162
#	216662
#	219022
#	222897
#	226255
#	233512
#
# Disc length: 3161
#
# Revision: 1
# Processed by: cddbd v1.5.1PL0 Copyright (c) Steve Scherf et al.
# Submitted via: VisiTrax 2.9.5.180 - For more info visit www.synapsa.com
# Normalized: r0:DSETVAR1
#
DISCID=7c0c5718
DTITLE=Various Artist - CDX 113 Jul 1995
DYEAR=1995
DGENRE=
TTITLE0=Kenny Chesney - All I need to know
TTITLE1=Russ Taff - Bein' happy
TTITLE2=Shenandoah - Heaven bound (I'm ready)
TTITLE3=Stacy Dean Campbell - Honey I do
TTITLE4=Celinda Pink - I don't need no lover boy
TTITLE5=Trisha Yearwood - I wanna go to far
TTITLE6=Collin Raye - One bo, one girl
TTITLE7=Billy Montana - Rain through the roof
TTITLE8=Martina McBride - Safe in the arms of love
TTITLE9=Sawyer Brown - (This thing called) Wantin' and havin' it all
TTITLE10=Amber Lane - Up against you
TTITLE11=John Michael Montgomery - Sold (The Grundy county auction incident)
TTITLE12=Lisa Brokop - Who needs you
TTITLE13=Woody Lee - Sound bites
TTITLE14=Woody Lee - Sound bites
TTITLE15=Woody Lee - Sound bites
TTITLE16=Woody Lee - Sound bites
TTITLE17=Woody Lee - Sound bites
TTITLE18=Woody Lee - Sound bites
TTITLE19=Woody Lee - Sound bites
TTITLE20=Woody Lee - Sound bites
TTITLE21=Woody Lee - Sound bites
TTITLE22=Woody Lee - Sound bites
TTITLE23=Bellamy Brothers - PSA
EXTD=
EXTT0=
EXTT1=
EXTT2=
EXTT3=
EXTT4=
EXTT5=
EXTT6=
EXTT7=
EXTT8=
EXTT9=
EXTT10=
EXTT11=
EXTT12=
EXTT13=
EXTT14=
EXTT15=
EXTT16=
EXTT17=
EXTT18=
EXTT19=
EXTT20=
EXTT21=
EXTT22=
EXTT23=
PLAYORDER=
